<svg width="28" height="44" viewBox="0 0 28 44" fill="none" xmlns="http://www.w3.org/2000/svg">
<g id="Group 9">
<g id="Group">
<path id="Vector" d="M23.1071 3.92399C20.6644 1.66791 17.2679 0.267476 13.5358 0.26883C9.80372 0.267476 6.40724 1.66791 3.96452 3.92399C1.51896 6.17736 -0.00137549 9.30745 1.46301e-06 12.7484C-0.00146729 15.6802 1.10303 18.3897 2.94466 20.5175C3.48681 21.147 3.9559 21.6693 4.33024 22.1176C4.61142 22.4535 4.83944 22.7471 5.02019 23.0142C5.29126 23.4162 5.45622 23.7481 5.57813 24.1462C5.69719 24.5456 5.77035 25.0322 5.77173 25.7199C5.77173 26.1827 5.82763 26.6336 5.96827 27.0766C6.07301 27.4072 6.22934 27.7351 6.4502 28.0367C6.7758 28.4916 7.25921 28.8738 7.78988 29.0999C8.31919 29.3287 8.87134 29.4121 9.38632 29.4121H17.6868C18.1443 29.4121 18.6305 29.346 19.1068 29.1701C19.4625 29.0392 19.8096 28.8435 20.1051 28.5922C20.5526 28.2166 20.8667 27.734 21.0488 27.2421C21.2324 26.7475 21.3013 26.241 21.3013 25.72C21.3013 25.109 21.3601 24.6555 21.4562 24.2839C21.6054 23.7284 21.8234 23.3158 22.2495 22.738C22.6725 22.1653 23.3123 21.4619 24.1298 20.5177C25.9701 18.3899 27.0731 15.679 27.0716 12.7486C27.073 9.30745 25.5526 6.17736 23.1071 3.92399ZM21.1119 18.3011C20.5912 18.9015 20.1222 19.4265 19.6876 19.9435C19.3635 20.3323 19.058 20.7184 18.7782 21.131C18.3608 21.7472 18.0051 22.4323 17.7756 23.1993C17.5461 23.9663 17.4429 24.7954 17.4429 25.7198C17.4429 25.77 17.4414 25.815 17.4386 25.8547H9.63583C9.63298 25.815 9.63004 25.7714 9.63004 25.7198C9.63004 24.8972 9.54972 24.1514 9.3676 23.4558C9.10083 22.4098 8.59733 21.5158 8.00643 20.7264C7.41122 19.9303 6.73844 19.203 5.96248 18.3011C4.6429 16.7737 3.85978 14.8537 3.85832 12.7484C3.85978 10.2795 4.9384 8.06046 6.69401 6.43921C8.4511 4.82187 10.8565 3.82607 13.5358 3.82607C16.2151 3.82607 18.6219 4.82187 20.379 6.43913C22.1331 8.06037 23.2118 10.2794 23.2132 12.7483C23.2118 14.8549 22.4286 16.775 21.1119 18.3011Z" fill="black"/>
<path id="Vector_2" d="M13.5358 43.6013C15.1337 43.6013 16.4303 42.4072 16.4303 40.9327H10.6413C10.6414 42.4072 11.938 43.6013 13.5358 43.6013Z" fill="black"/>
<path id="Vector_3" d="M18.4972 31.5304H8.57593C7.71249 31.5304 7.01392 32.1743 7.01392 32.9691C7.01392 33.7652 7.7124 34.4093 8.57593 34.4093H18.4972C19.3592 34.4093 20.0592 33.7653 20.0592 32.9691C20.0592 32.1743 19.3592 31.5304 18.4972 31.5304Z" fill="black"/>
<path id="Vector_4" d="M18.4972 36.1786H8.57593C7.71249 36.1786 7.01392 36.8226 7.01392 37.6187C7.01392 38.4135 7.7124 39.0575 8.57593 39.0575H18.4972C19.3592 39.0575 20.0592 38.4135 20.0592 37.6187C20.0592 36.8226 19.3592 36.1786 18.4972 36.1786Z" fill="black"/>
</g>
</g>
</svg>
